<svg width="26" height="25" viewBox="0 0 26 25" fill="none" xmlns="http://www.w3.org/2000/svg">
<path d="M13.2594 25.0015C10.5869 25.0015 8.2457 24.4996 6.23567 23.4959C4.24848 22.4921 2.70669 21.0566 1.61031 19.1891C0.53677 17.3217 0 15.1509 0 12.6765C0 10.1789 0.54819 7.97299 1.64457 6.05889C2.76379 4.12145 4.28274 2.62752 6.2014 1.5771C8.14291 0.526675 10.3128 0.00146484 12.7112 0.00146484C15.0867 0.00146484 17.2337 0.526675 19.1524 1.5771C21.0939 2.62752 22.6129 4.12145 23.7092 6.05889C24.8285 7.97299 25.3881 10.1789 25.3881 12.6765C25.3881 14.3572 25.0226 15.9679 24.2917 17.5085C23.5608 19.0257 22.6129 20.2279 21.4479 21.1149H25.8335V25.0015H13.2594ZM12.7112 20.9749C15.2465 20.9749 17.2566 20.2512 18.7413 18.804C20.2488 17.3567 21.0025 15.3143 21.0025 12.6765C21.0025 10.9492 20.6371 9.4319 19.9062 8.12471C19.1752 6.81752 18.1816 5.81379 16.9254 5.11351C15.6691 4.41323 14.2644 4.06309 12.7112 4.06309C11.158 4.06309 9.7418 4.41323 8.46269 5.11351C7.20642 5.81379 6.21282 6.81752 5.4819 8.12471C4.75098 9.4319 4.38552 10.9492 4.38552 12.6765C4.38552 15.3376 5.12786 17.3918 6.61255 18.839C8.12007 20.2629 10.1529 20.9749 12.7112 20.9749Z" fill="#101010"/>
</svg>
